<svg xmlns="http://www.w3.org/2000/svg" viewBox="0 0 128 128" fill="none">
  <rect width="128" height="128" rx="26" fill="#AB9FF2"/>
  <path d="M110.584 64.914H99.142c0-24.097-19.525-43.622-43.622-43.622-23.573 0-42.763 18.71-43.575 42.074-.873 25.146 19.961 46.696 45.12 46.696h2.04c22.468 0 42.468-10.893 51.479-29.248 2.61-5.315-.14-11.666-5.64-13.218a10.19 10.19 0 0 0-5.36.07v-2.752ZM36.952 67.444c0 3.285-2.663 5.948-5.948 5.948s-5.948-2.663-5.948-5.948 2.663-5.948 5.948-5.948 5.948 2.663 5.948 5.948Zm22.83 0c0 3.285-2.663 5.948-5.948 5.948S47.886 70.73 47.886 67.444s2.663-5.948 5.948-5.948 5.948 2.663 5.948 5.948Z" fill="#FFFDF8"/>
</svg>
